# xmcd
#
# Track frame offsets:
#	150
#	17567
#	36477
#	56215
#	71585
#	91420
#	110455
#	126125
#	144795
#	161682
#
# Disc length: 2371 seconds
#
# Revision: 1
# Processed by: cddbd v1.5.2PL0 Copyright (c) Steve Scherf et al.
# Submitted via: audiograbber 1.83.01
#
DISCID=8709410a
DTITLE=王心凌 - Magic Gyndi
DYEAR=2007
DGENRE=Pop
TTITLE0=愛的天靈靈
TTITLE1=那年夏天寧靜的海 
TTITLE2=原來這才是真的你
TTITLE3=火車快開
TTITLE4=蝴蝶
TTITLE5=我和你
TTITLE6=愛上了就不得了
TTITLE7=迷你電影
TTITLE8=衣櫥的秘密
TTITLE9=約定
EXTD=
EXTT0=
EXTT1=
EXTT2=
EXTT3=
EXTT4=
EXTT5=
EXTT6=
EXTT7=
EXTT8=
EXTT9=
PLAYORDER=
